<?xml version="1.0" encoding="UTF-8" standalone="no"?>
<!-- Generator: Adobe Illustrator 19.0.0, SVG Export Plug-In . SVG Version: 6.00 Build 0)  -->

<svg
   xmlns:dc="http://purl.org/dc/elements/1.1/"
   xmlns:cc="http://creativecommons.org/ns#"
   xmlns:rdf="http://www.w3.org/1999/02/22-rdf-syntax-ns#"
   xmlns:svg="http://www.w3.org/2000/svg"
   xmlns="http://www.w3.org/2000/svg"
   xmlns:sodipodi="http://sodipodi.sourceforge.net/DTD/sodipodi-0.dtd"
   xmlns:inkscape="http://www.inkscape.org/namespaces/inkscape"
   version="1.1"
   id="Layer_1"
   x="0px"
   y="0px"
   viewBox="0 0 1052.3622 744.09448"
   xml:space="preserve"
   inkscape:version="0.91 r13725"
   sodipodi:docname="web-final-quiz-header.svg"
   width="297mm"
   height="210mm"><metadata
     id="metadata3486"><rdf:RDF><cc:Work
         rdf:about=""><dc:format>image/svg+xml</dc:format><dc:type
           rdf:resource="http://purl.org/dc/dcmitype/StillImage" /><dc:title></dc:title></cc:Work></rdf:RDF></metadata><defs
     id="defs3484" /><sodipodi:namedview
     pagecolor="#ffffff"
     bordercolor="#666666"
     borderopacity="1"
     objecttolerance="10"
     gridtolerance="10"
     guidetolerance="10"
     inkscape:pageopacity="0"
     inkscape:pageshadow="2"
     inkscape:window-width="1626"
     inkscape:window-height="937"
     id="namedview3482"
     showgrid="false"
     inkscape:zoom="0.79718408"
     inkscape:cx="574.40977"
     inkscape:cy="427.72056"
     inkscape:window-x="73"
     inkscape:window-y="-8"
     inkscape:window-maximized="1"
     inkscape:current-layer="Layer_1"
     units="mm"
     showguides="false" /><g
     id="g5280"
     transform="translate(-180.63582,-210.74179)"><g
       id="g5214"><g
         id="g5149"><rect
           rx="31.008839"
           ry="22.480801"
           y="331.37708"
           x="363.47552"
           height="327.41266"
           width="568.76733"
           id="rect4034"
           style="opacity:1;fill:#4f3f82;fill-opacity:1;stroke:none;stroke-width:9.38000011;stroke-miterlimit:4;stroke-dasharray:none" /><ellipse
           ry="163.7365"
           rx="162.64835"
           cy="495.14169"
           cx="395.08551"
           id="path4026"
           style="opacity:1;fill:#e4e5e7;fill-opacity:1;stroke:none;stroke-width:9.38000011;stroke-miterlimit:4;stroke-dasharray:none" /><g
           transform="translate(102.89266,156.699)"
           id="g3452" /><g
           transform="translate(102.89266,156.699)"
           id="g3454" /><g
           transform="translate(102.89266,156.699)"
           id="g3456" /><g
           transform="translate(102.89266,156.699)"
           id="g3458" /><g
           transform="translate(102.89266,156.699)"
           id="g3460" /><g
           transform="translate(102.89266,156.699)"
           id="g3462" /><g
           transform="translate(102.89266,156.699)"
           id="g3464" /><g
           transform="translate(102.89266,156.699)"
           id="g3466" /><g
           transform="translate(102.89266,156.699)"
           id="g3468" /><g
           transform="translate(102.89266,156.699)"
           id="g3470" /><g
           transform="translate(102.89266,156.699)"
           id="g3472" /><g
           transform="translate(102.89266,156.699)"
           id="g3474" /><g
           transform="translate(102.89266,156.699)"
           id="g3476" /><g
           transform="translate(102.89266,156.699)"
           id="g3478" /><g
           transform="translate(102.89266,156.699)"
           id="g3480" /><g
           transform="matrix(0.64908985,0,0,0.64908985,228.98272,331.30934)"
           id="g3402"><path
             style="fill:#ffffff"
             d="m 139.547,89.825 c -2.865,0 -5.686,-1.365 -7.428,-3.916 -2.794,-4.096 -1.743,-9.683 2.353,-12.477 10.572,-7.231 21.836,-13.537 33.478,-18.755 4.518,-2.012 9.836,-0.009 11.866,4.527 2.021,4.536 0,9.845 -4.527,11.875 -10.662,4.77 -20.983,10.554 -30.684,17.174 -1.546,1.06 -3.315,1.572 -5.058,1.572"
             id="path3404"
             inkscape:connector-curvature="0" /><path
             style="fill:#ffffff"
             d="m 65.814,179.649 c -1.168,0 -2.362,-0.225 -3.512,-0.719 -4.563,-1.94 -6.692,-7.222 -4.743,-11.785 11.309,-26.597 27.621,-50.311 48.469,-70.503 3.566,-3.44 9.261,-3.359 12.701,0.207 3.449,3.566 3.359,9.252 -0.198,12.701 -19.124,18.513 -34.07,40.259 -44.454,64.638 -1.445,3.413 -4.768,5.461 -8.263,5.461"
             id="path3406"
             inkscape:connector-curvature="0" /></g><path
           style="fill:#6ca1e9"
           d="m 288.48803,611.67772 213.32338,0 c 34.63868,-29.26689 56.59025,-71.88907 56.59025,-120.15825 0,-88.14398 -73.09011,-160.21013 -163.25194,-160.21013 -90.16182,0 -163.25194,72.06615 -163.25194,160.21077 0,48.26917 21.95157,90.89072 56.59025,120.15761"
           id="path3400"
           inkscape:connector-curvature="0" /><g
           transform="matrix(0.64908985,0,0,0.64908985,228.98272,331.30934)"
           id="g3408"><path
             style="fill:#cfd2cf"
             d="m 506.046,276.816 c -40.008,9.962 -76.081,29.732 -105.697,56.527 25.223,13.357 48.469,29.956 69.12,49.305 19.555,-31.341 32.454,-67.261 36.577,-105.832"
             id="path3410"
             inkscape:connector-curvature="0" /><path
             style="fill:#cfd2cf"
             d="M 108.293,330.391 C 79.316,305.114 44.464,286.404 5.956,276.82 9.845,313.226 21.63,347.224 39.38,377.289 60.103,358.811 83.259,343.011 108.293,330.391"
             id="path3412"
             inkscape:connector-curvature="0" /></g><g
           transform="matrix(0.64908985,0,0,0.64908985,228.98272,331.30934)"
           id="g3416"><path
             style="fill:#a46f3e"
             d="m 222.916,272.325 c -2.3,0 -4.599,-0.88 -6.351,-2.632 L 186.77,239.898 c -3.512,-3.512 -3.512,-9.198 0,-12.701 3.512,-3.512 9.198,-3.512 12.701,0 l 29.795,29.795 c 3.512,3.512 3.512,9.189 0,12.701 -1.751,1.751 -4.051,2.632 -6.35,2.632"
             id="path3418"
             inkscape:connector-curvature="0" /><path
             style="fill:#a46f3e"
             d="m 193.122,242.526 c -4.958,0 -8.982,-4.015 -8.982,-8.982 l 0,-17.965 c 0,-4.967 4.024,-8.982 8.982,-8.982 4.958,0 8.982,4.015 8.982,8.982 l 0,17.965 c 0,4.967 -4.024,8.982 -8.982,8.982"
             id="path3420"
             inkscape:connector-curvature="0" /><path
             style="fill:#a46f3e"
             d="m 193.122,242.526 -17.965,0 c -4.958,0 -8.982,-4.015 -8.982,-8.982 0,-4.967 4.024,-8.982 8.982,-8.982 l 17.965,0 c 4.958,0 8.982,4.015 8.982,8.982 0,4.967 -4.024,8.982 -8.982,8.982"
             id="path3422"
             inkscape:connector-curvature="0" /><path
             style="fill:#a46f3e"
             d="m 360.885,272.377 c -2.299,0 -4.599,-0.88 -6.351,-2.632 -3.512,-3.512 -3.512,-9.189 0,-12.701 l 29.849,-29.849 c 3.512,-3.512 9.198,-3.512 12.701,0 3.512,3.503 3.512,9.189 0,12.701 l -29.849,29.849 c -1.751,1.752 -4.05,2.632 -6.35,2.632"
             id="path3424"
             inkscape:connector-curvature="0" /><path
             style="fill:#a46f3e"
             d="m 390.736,242.526 c -4.958,0 -8.982,-4.015 -8.982,-8.982 l 0,-17.965 c 0,-4.967 4.024,-8.982 8.982,-8.982 4.958,0 8.982,4.015 8.982,8.982 l 0,17.965 c 0,4.967 -4.024,8.982 -8.982,8.982"
             id="path3426"
             inkscape:connector-curvature="0" /><path
             style="fill:#a46f3e"
             d="m 408.701,242.526 -17.965,0 c -4.958,0 -8.982,-4.015 -8.982,-8.982 0,-4.967 4.024,-8.982 8.982,-8.982 l 17.965,0 c 4.958,0 8.982,4.015 8.982,8.982 0,4.967 -4.024,8.982 -8.982,8.982"
             id="path3428"
             inkscape:connector-curvature="0" /></g><path
           sodipodi:nodetypes="sscsccccsssscs"
           inkscape:connector-curvature="0"
           id="path3489"
           d="m 409.52566,402.98117 0.19419,32.97769 c 0.0124,2.11354 -0.36841,4.11524 -1.05506,5.89701 l -13.42441,0.12603 c -4.49927,0.0422 -8.43294,3.02665 -10.6686,7.49383 l -6.4928,0.0608 0.33151,14.41147 -18.11542,-14.24448 -9.90532,0.093 c -5.8114,0.0545 -10.55528,-5.84975 -10.59846,-13.18132 l -0.19418,-32.97799 c -0.0432,-7.33976 4.63105,-13.32814 10.44195,-13.38265 l 48.88465,-0.45844 c 5.8114,-0.0548 10.55877,5.84566 10.60195,13.18508 z"
           style="fill:#70e5cf" /><path
           inkscape:connector-curvature="0"
           id="path3436"
           d="m 419.58082,372.12216 -8.05196,0 c -2.6061,0 -4.71694,-2.11084 -4.71694,-4.72277 l 0,-8.04547 c 0,-2.61194 2.11084,-4.72278 4.71694,-4.72278 l 8.05196,0 c 2.60609,0 4.72277,2.11084 4.72277,4.72278 l 0,8.04611 c 0,2.61194 -2.11668,4.72213 -4.72277,4.72213"
           style="fill:#ffffff" /><path
           inkscape:connector-curvature="0"
           id="path3438"
           d="m 507.03723,447.91768 -8.05195,0 c -2.6061,0 -4.71694,-2.11084 -4.71694,-4.72277 l 0,-8.04612 c 0,-2.61194 2.11084,-4.72278 4.71694,-4.72278 l 8.05195,0 c 2.6061,0 4.72278,2.11084 4.72278,4.72278 l 0,8.04612 c 0,2.61193 -2.11668,4.72277 -4.72278,4.72277"
           style="fill:#ffffff" /><path
           inkscape:connector-curvature="0"
           id="path3440"
           d="m 302.97247,500.3914 -8.05196,0 c -2.60609,0 -4.71693,-2.11084 -4.71693,-4.72277 l 0,-8.04547 c 0,-2.61194 2.11084,-4.72278 4.71693,-4.72278 l 8.05196,0 c 2.6061,0 4.72278,2.11084 4.72278,4.72278 l 0,8.04612 c 0,2.61193 -2.11668,4.72212 -4.72278,4.72212"
           style="fill:#ffffff" /><path
           style="fill:#e4e5e7;fill-opacity:1"
           d="m 470.06701,538.88373 c -4.41381,24.51677 -25.81105,43.13332 -51.59354,43.13332 -28.98316,0 -52.47372,-23.49056 -52.47372,-52.47372 0,-1.41112 0.1746,-2.78135 0.2856,-4.16846 -42.66143,5.34656 -81.28747,23.64245 -111.79859,50.87631 9.07817,15.36915 20.56966,29.14024 34.00322,40.74857 l 213.31818,0 c 12.42487,-10.734 23.17575,-23.32764 31.90406,-37.31488 -18.38936,-17.23463 -39.92097,-31.15177 -63.64521,-40.80114"
           id="path3414"
           inkscape:connector-curvature="0" /><path
           style="fill:#6f58a8"
           d="m 443.8399,483.61892 c -6.37861,6.72263 -15.36915,10.94366 -25.36838,10.94366 -9.99923,0 -18.99561,-4.22103 -25.36838,-10.94366 -16.15584,8.94381 -27.10534,26.14924 -27.10534,45.92636 0,28.97731 23.49056,52.47372 52.47372,52.47372 28.98316,0 52.47372,-23.49641 52.47372,-52.47372 0,-19.77647 -10.94949,-36.98255 -27.10534,-45.92636"
           id="path3442"
           inkscape:connector-curvature="0" /><path
           style="fill:#4f3f82"
           d="m 418.47087,494.56128 c -4.90322,0 -9.56758,-1.02037 -13.80614,-2.83912 l -11.80629,20.45282 20.19643,11.6609 18.34263,-31.7697 c -4.00034,1.59092 -8.35574,2.4951 -12.92663,2.4951"
           id="path3444"
           inkscape:connector-curvature="0" /><path
           style="fill:#4f3f82"
           d="m 444.49288,436.25678 -52.04207,0 c -5.55621,6.19167 -8.96134,14.34878 -8.96134,23.3218 0,19.32211 15.66059,34.9827 34.9827,34.9827 19.32211,0 34.9827,-15.66059 34.9827,-34.9827 -6.5e-4,-8.97302 -3.40578,-17.12948 -8.96199,-23.3218"
           id="path3448"
           inkscape:connector-curvature="0" /><polygon
           transform="matrix(0.64908985,0,0,0.64908985,228.98272,331.30934)"
           style="fill:#6f58a8"
           points="327.859,125.754 255.999,125.754 255.999,161.684 327.859,161.684 "
           id="polygon3446" /><path
           style="fill:#6f58a8"
           d="m 459.28369,442.08756 -81.62564,0 c -3.21819,0 -5.83013,-2.6061 -5.83013,-5.83013 0,-3.22403 2.61194,-5.83012 5.83013,-5.83012 l 81.62564,0 c 3.21819,0 5.83013,2.60609 5.83013,5.83012 6.5e-4,3.22403 -2.61194,5.83013 -5.83013,5.83013"
           id="path3450"
           inkscape:connector-curvature="0" /><g
           transform="matrix(0.55211114,0,0,0.50772601,467.00641,251.29012)"
           id="g3866"><path
             inkscape:connector-curvature="0"
             id="path3507"
             d="m -201.16928,310.4105 c 2.21427,0 4.0083,-1.98778 4.0083,-4.4401 0,-2.92706 1.0609,-5.64247 2.98683,-7.64821 1.92462,-2.00331 4.44563,-3.00618 7.0968,-2.82415 4.66824,0.32086 8.55209,4.6231 8.84262,9.79375 0.21867,3.90614 -1.5127,7.5987 -4.51837,9.63696 -5.60032,3.79741 -8.94385,10.35974 -8.94385,17.55506 0,2.45232 1.79403,4.4401 4.0083,4.4401 2.21427,0 4.0083,-1.98778 4.0083,-4.4401 0,-4.07943 1.91103,-7.81034 5.11258,-9.9816 5.54335,-3.75858 8.73702,-10.56459 8.33431,-17.76088 -0.54514,-9.719 -7.5727,-17.50361 -16.34652,-18.10698 -4.88428,-0.33446 -9.53018,1.51595 -13.08406,5.21579 -3.50435,3.6479 -5.51354,8.79428 -5.51354,14.11929 -4.4e-4,2.45329 1.79446,4.44107 4.0083,4.44107 z"
             style="fill:#4d4d4d" /><ellipse
             id="circle3513"
             cy="348.9418"
             cx="-187.69348"
             style="fill:#4d4d4d"
             rx="4.0082998"
             ry="4.4400988" /></g><g
           transform="matrix(0.43820924,0,0,0.48541582,-146.78069,186.2351)"
           id="g3515" /><g
           transform="matrix(0.43820924,0,0,0.48541582,-146.78069,186.2351)"
           id="g3517" /><g
           transform="matrix(0.43820924,0,0,0.48541582,-146.78069,186.2351)"
           id="g3519" /><g
           transform="matrix(0.43820924,0,0,0.48541582,-146.78069,186.2351)"
           id="g3521" /><g
           transform="matrix(0.43820924,0,0,0.48541582,-146.78069,186.2351)"
           id="g3523" /><g
           transform="matrix(0.43820924,0,0,0.48541582,-146.78069,186.2351)"
           id="g3525" /><g
           transform="matrix(0.43820924,0,0,0.48541582,-146.78069,186.2351)"
           id="g3527" /><g
           transform="matrix(0.43820924,0,0,0.48541582,-146.78069,186.2351)"
           id="g3529" /><g
           transform="matrix(0.43820924,0,0,0.48541582,-146.78069,186.2351)"
           id="g3531" /><g
           transform="matrix(0.43820924,0,0,0.48541582,-146.78069,186.2351)"
           id="g3533" /><g
           transform="matrix(0.43820924,0,0,0.48541582,-146.78069,186.2351)"
           id="g3535" /><g
           transform="matrix(0.43820924,0,0,0.48541582,-146.78069,186.2351)"
           id="g3537" /><g
           transform="matrix(0.43820924,0,0,0.48541582,-146.78069,186.2351)"
           id="g3539" /><g
           transform="matrix(0.43820924,0,0,0.48541582,-146.78069,186.2351)"
           id="g3541" /><g
           transform="matrix(0.43820924,0,0,0.48541582,-146.78069,186.2351)"
           id="g3543" /><text
           transform="scale(0.92906633,1.0763494)"
           sodipodi:linespacing="125%"
           id="text5125"
           y="391.16675"
           x="970.30634"
           style="font-style:normal;font-weight:normal;font-size:69.43099976px;line-height:125%;font-family:sans-serif;letter-spacing:0px;word-spacing:0px;fill:#ced9e8;fill-opacity:1;stroke:none;stroke-width:1px;stroke-linecap:butt;stroke-linejoin:miter;stroke-opacity:1"
           xml:space="preserve"><tspan
             y="391.16675"
             x="970.30634"
             style="font-style:normal;font-variant:normal;font-weight:normal;font-stretch:normal;font-size:69.43125153px;line-height:125%;font-family:sans-serif;-inkscape-font-specification:'sans-serif, Normal';text-align:end;writing-mode:lr-tb;text-anchor:end"
             id="tspan5143"
             sodipodi:role="line">The</tspan><tspan
             y="477.95581"
             x="970.30634"
             style="font-style:normal;font-variant:normal;font-weight:normal;font-stretch:normal;font-size:69.43125153px;line-height:125%;font-family:sans-serif;-inkscape-font-specification:'sans-serif, Normal';text-align:end;writing-mode:lr-tb;text-anchor:end"
             id="tspan5145"
             sodipodi:role="line">Christmas</tspan><tspan
             y="564.74487"
             x="970.30634"
             style="font-style:normal;font-variant:normal;font-weight:normal;font-stretch:normal;font-size:69.43125153px;line-height:125%;font-family:sans-serif;-inkscape-font-specification:'sans-serif, Normal';text-align:end;writing-mode:lr-tb;text-anchor:end"
             id="tspan5147"
             sodipodi:role="line">Quiz</tspan></text>
</g></g></g></svg>